<svg width="50" height="50" viewBox="0 0 50 50" fill="none" xmlns="http://www.w3.org/2000/svg">
<path d="M25 49.9883C38.8071 49.9883 50 38.7981 50 24.9942C50 11.1903 38.8071 0 25 0C11.1929 0 0 11.1903 0 24.9942C0 38.7981 11.1929 49.9883 25 49.9883Z" fill="#EB9B00"/>
<path d="M23.1626 23.0375C23.0376 22.65 22.9251 22.275 22.8001 21.8875C22.6751 21.5 22.5626 21.1375 22.4626 20.775C22.3626 20.425 22.2751 20.1 22.1876 19.8H22.1626C22.0501 20.3375 21.9126 20.875 21.7376 21.4125C21.5501 22.0125 21.3626 22.6375 21.1626 23.2625C20.9876 23.9 20.8001 24.4875 20.6126 25.0125H23.7876C23.7126 24.7487 23.6126 24.4375 23.5001 24.1112C23.3876 23.775 23.2751 23.4125 23.1626 23.0375V23.0375ZM34.6876 10H15.3126C12.3751 10 10.0001 12.375 10.0001 15.3125V33.9375C10.0001 36.875 12.3751 39.25 15.3126 39.25H34.6876C37.6251 39.25 40.0001 36.875 40.0001 33.9375V15.3125C40.0001 12.375 37.6251 10 34.6876 10ZM28.3751 30.6625H25.7614C25.6751 30.675 25.5876 30.6125 25.5626 30.525L24.5376 27.55H19.8876L18.9376 30.4875C18.9126 30.6 18.8126 30.675 18.7001 30.6637H16.3501C16.2126 30.6637 16.1751 30.5875 16.2126 30.4387L20.2376 18.85C20.2751 18.725 20.3126 18.5875 20.3626 18.4375C20.4126 18.175 20.4376 17.9 20.4376 17.625C20.4251 17.5625 20.4751 17.5 20.5376 17.4875H23.7751C23.8751 17.4875 23.9251 17.525 23.9376 17.5875L28.5001 30.4625C28.5376 30.5987 28.5001 30.6625 28.3751 30.6625V30.6625ZM32.6251 30.475C32.6251 30.6125 32.5764 30.675 32.4639 30.675H30.0126C29.8876 30.675 29.8251 30.5987 29.8251 30.475V20.85C29.8251 20.725 29.8764 20.675 29.9889 20.675H32.4639C32.5764 20.675 32.6251 20.7375 32.6251 20.85V30.475V30.475ZM32.3639 19.1875C32.2162 19.3374 32.0383 19.454 31.8418 19.5295C31.6454 19.6049 31.4352 19.6375 31.2251 19.625C30.8126 19.6375 30.4126 19.475 30.1114 19.1875C29.825 18.8744 29.6724 18.4616 29.6864 18.0375C29.6739 17.6125 29.8364 17.2125 30.1351 16.925C30.4376 16.6375 30.8376 16.4875 31.2501 16.4875C31.7389 16.4875 32.1114 16.6375 32.3876 16.925C32.6626 17.225 32.8126 17.625 32.8001 18.0375C32.8126 18.4625 32.6626 18.875 32.3639 19.1875V19.1875Z" fill="white"/>
</svg>
