<svg width="50" height="50" viewBox="0 0 50 50" fill="none" xmlns="http://www.w3.org/2000/svg">
<path d="M25 49.9883C38.8071 49.9883 50 38.7981 50 24.9942C50 11.1903 38.8071 0 25 0C11.1929 0 0 11.1903 0 24.9942C0 38.7981 11.1929 49.9883 25 49.9883Z" fill="#7868E6"/>
<path fill-rule="evenodd" clip-rule="evenodd" d="M20.519 10C17.4602 10 15.0002 12.5662 15.0002 15.71C15.0002 17.6212 15.9102 19.3187 17.309 20.355C16.5881 20.8951 16.0037 21.5966 15.6028 22.4032C15.2018 23.2099 14.9955 24.0992 15.0002 25C15.0002 26.9125 15.9102 28.6087 17.309 29.645C16.5881 30.1851 16.0037 30.8866 15.6028 31.6932C15.2018 32.4999 14.9955 33.3892 15.0002 34.29C15.0002 37.4337 17.4602 40 20.519 40C23.5765 40 26.0377 37.4337 26.0377 34.29V29.4625C27.0044 30.2685 28.2229 30.7103 29.4815 30.7112C32.5402 30.71 35.0002 28.1437 35.0002 25C35.0002 23.0875 34.0914 21.3912 32.6915 20.355C33.4124 19.8149 33.9967 19.1134 34.3976 18.3068C34.7986 17.5001 35.0049 16.6108 35.0002 15.71C35.0002 12.5662 32.5402 10 29.4815 10H20.519V10ZM17.074 15.71C17.074 13.7212 18.6265 12.1287 20.519 12.1287H23.9627V19.2912H20.519C18.6265 19.2912 17.074 17.6975 17.074 15.71V15.71ZM29.4815 19.29H26.0377V12.1275H29.4815C31.3752 12.1275 32.9264 13.7212 32.9264 15.71C32.9264 17.6975 31.3752 19.29 29.4815 19.29ZM17.0752 25C17.0752 23.0125 18.6277 21.4187 20.5202 21.4187H23.9639V28.5812H20.519C18.6252 28.5812 17.074 26.9875 17.074 25H17.0752ZM26.0377 25C26.0377 23.0125 27.5902 21.4187 29.4827 21.4187C31.3765 21.4187 32.9277 23.0112 32.9277 25C32.9277 26.9875 31.3765 28.5812 29.4827 28.5812C27.5902 28.5812 26.039 26.9887 26.039 25H26.0377ZM17.0752 34.29C17.0752 32.3025 18.6277 30.71 20.5202 30.71H23.9639V34.29C23.9639 36.2787 22.414 37.8712 20.5202 37.8712C18.6277 37.8712 17.0752 36.2787 17.0752 34.29Z" fill="white"/>
</svg>
