<svg width="50" height="51" viewBox="0 0 50 51" fill="none" xmlns="http://www.w3.org/2000/svg">
<path d="M28.1847 0.204658C14.4877 -1.54556 1.96113 8.12282 0.204658 21.8214C-1.54556 35.5184 8.12283 48.0449 21.8214 49.8014C35.5184 51.5516 48.045 41.8832 49.7936 28.1847C51.5516 14.4877 41.8848 1.96112 28.1847 0.204658ZM33.3291 15.8066C32.865 15.8066 32.4243 15.9941 32.0992 16.327L22.8215 25.5969L22.1793 24.9608L20.8432 23.6185C29.9833 14.5033 31.6367 14.4127 33.3275 15.805L33.3291 15.8066ZM23.2044 25.9297L32.4493 16.677C32.5711 16.55 32.7175 16.4492 32.8795 16.3805C33.0415 16.3118 33.2157 16.2768 33.3917 16.2775C33.5677 16.2782 33.7416 16.3147 33.9031 16.3847C34.0645 16.4548 34.21 16.5568 34.3308 16.6848C34.4507 16.8129 34.5432 16.964 34.6027 17.1291C34.6622 17.2941 34.6874 17.4696 34.6767 17.6447C34.666 17.8198 34.6197 17.9909 34.5406 18.1475C34.4615 18.3041 34.3513 18.4429 34.2167 18.5554L24.4264 27.1502L23.2044 25.9297ZM23.8888 27.3799L21.5932 27.8753C21.5655 27.8791 21.5373 27.874 21.5126 27.8608C21.4879 27.8477 21.468 27.827 21.4557 27.8018C21.4432 27.7777 21.4389 27.7502 21.4434 27.7234C21.4479 27.6966 21.461 27.672 21.4807 27.6534L22.8231 26.311L23.8888 27.3799ZM18.0444 26.4204L20.4947 23.9779L22.3261 25.8094L18.1991 26.6954C18.1643 26.7046 18.1275 26.7015 18.0948 26.6867C18.062 26.6719 18.0354 26.6463 18.0194 26.6142C18.0014 26.5837 17.9942 26.5481 17.9987 26.513C18.0032 26.4779 18.0193 26.4453 18.0444 26.4204ZM10.4512 39.0423C10.3622 39.0345 10.295 38.9532 10.3028 38.8719C10.3094 38.8349 10.3268 38.8007 10.3528 38.7735H10.3606L12.3296 36.8045L14.8783 39.3533L10.4512 39.0423ZM15.5034 36.4216C15.4098 36.4725 15.3353 36.5525 15.2913 36.6495C15.2473 36.7465 15.2362 36.8553 15.2596 36.9592L15.6831 38.7594C15.7503 39.0204 15.4315 39.197 15.244 39.0032H15.2362L12.6812 36.4466L20.5197 28.616L24.3123 27.7956L26.1266 29.6192C23.5138 31.9133 19.9399 34.201 15.505 36.4216H15.5034ZM26.5017 29.2848L24.7514 27.5346C24.7514 27.5346 34.4526 19.021 34.5417 18.9398C34.6308 18.8585 34.7121 18.7695 34.7855 18.6788C34.4855 21.4792 30.5615 25.4343 26.5017 29.2848ZM34.1276 15.8222H34.1198C30.7084 12.3952 35.5278 7.12895 39.2392 10.2215L35.8872 13.5844C35.8638 13.6078 35.8452 13.6356 35.8325 13.6661C35.8198 13.6967 35.8133 13.7295 35.8133 13.7626C35.8133 13.7957 35.8198 13.8285 35.8325 13.859C35.8452 13.8896 35.8638 13.9174 35.8872 13.9407L38.4828 16.5395C37.7733 16.8915 36.9711 17.0116 36.1896 16.8829C35.4081 16.7542 34.6868 16.3831 34.1276 15.8222ZM39.4908 15.8222C39.3208 15.9936 39.1327 16.1461 38.9298 16.277L36.4154 13.7626L39.6049 10.5638C40.269 11.2851 40.6281 12.2356 40.6068 13.216C40.5856 14.1963 40.1856 15.1303 39.4908 15.8222ZM39.2861 12.6078C39.2359 12.6436 39.1981 12.6941 39.1779 12.7523C39.1578 12.8106 39.1562 12.8736 39.1735 12.9328C39.2493 13.0821 39.2796 13.2504 39.2607 13.4167C39.2418 13.5831 39.1746 13.7403 39.0673 13.8688C39.0425 13.8989 39.0241 13.9337 39.0131 13.971C39.0021 14.0084 38.9988 14.0475 39.0033 14.0862C39.0078 14.1249 39.0201 14.1623 39.0394 14.1961C39.0588 14.2299 39.0847 14.2594 39.1157 14.283C39.1655 14.3187 39.2248 14.3388 39.2861 14.3408C39.3751 14.3408 39.4595 14.308 39.5064 14.2423C39.6858 14.0265 39.799 13.7634 39.8322 13.4848C39.8655 13.2061 39.8175 12.9238 39.6939 12.6718C39.6716 12.6405 39.6432 12.614 39.6105 12.5938C39.5778 12.5736 39.5414 12.5601 39.5034 12.5541C39.4655 12.5482 39.4267 12.5498 39.3894 12.559C39.352 12.5683 39.3169 12.5848 39.2861 12.6078Z" fill="#EB9B00"/>
</svg>
