<svg width="50" height="50" viewBox="0 0 50 50" fill="none" xmlns="http://www.w3.org/2000/svg">
<path d="M25 49.9883C38.8071 49.9883 50 38.7981 50 24.9942C50 11.1903 38.8071 0 25 0C11.1929 0 0 11.1903 0 24.9942C0 38.7981 11.1929 49.9883 25 49.9883Z" fill="#7868E6"/>
<path d="M22.3124 20.15C21.8499 19.9625 21.3499 19.8875 20.8374 19.9C20.5124 19.9 20.2249 19.9 19.9874 19.9125C19.7374 19.9 19.5624 19.9125 19.4749 19.925V24.125C19.6499 24.1375 19.8124 24.15 19.9624 24.15H20.6249C21.1124 24.15 21.5999 24.075 22.0624 23.925C22.4624 23.8125 22.8124 23.575 23.0874 23.2625C23.3499 22.95 23.4749 22.525 23.4749 21.975C23.4874 21.5875 23.3874 21.2 23.1874 20.8625C22.979 20.5379 22.6724 20.2883 22.3124 20.15ZM34.6874 10H15.3124C12.3749 10 9.99988 12.375 9.99988 15.3125V33.9363C9.99988 36.8738 12.3749 39.2488 15.3124 39.2488H34.6874C37.6249 39.2488 39.9999 36.8738 39.9999 33.9363V15.3125C39.9999 12.375 37.6249 10 34.6874 10ZM25.4486 24.5625C24.9499 25.2625 24.2499 25.7875 23.4374 26.0875C22.5874 26.4 21.6499 26.5125 20.6249 26.5125C20.3249 26.5125 20.1249 26.5125 19.9999 26.5C19.8749 26.4875 19.6999 26.4875 19.4624 26.4875V30.4988C19.4749 30.5863 19.4124 30.6625 19.3249 30.675H16.8999C16.7999 30.675 16.7499 30.6238 16.7499 30.5113V17.65C16.7499 17.5625 16.7874 17.5125 16.8749 17.5125C17.0874 17.5125 17.2874 17.5125 17.5749 17.5C17.8749 17.4875 18.1874 17.4875 18.5249 17.475C18.8624 17.4625 19.2249 17.4625 19.6124 17.45C19.9999 17.4375 20.3749 17.4375 20.7499 17.4375C21.7749 17.4375 22.6249 17.5625 23.3249 17.825C23.9499 18.0375 24.5249 18.3875 24.9999 18.85C25.3999 19.25 25.7124 19.7375 25.9124 20.275C26.0986 20.8 26.1986 21.3375 26.1986 21.9C26.1999 22.975 25.9499 23.8625 25.4486 24.5625V24.5625ZM34.3124 29.425C33.9624 29.925 33.4736 30.3113 32.9124 30.5388C32.2999 30.8 31.5499 30.9363 30.6486 30.9363C30.0749 30.9363 29.5111 30.8875 28.9499 30.775C28.5124 30.6988 28.0749 30.5625 27.6749 30.375C27.5874 30.3263 27.5236 30.2388 27.5361 30.1388V27.9637C27.5361 27.9275 27.5499 27.8763 27.5874 27.8513C27.6236 27.8263 27.6624 27.8387 27.6999 27.8637C28.1874 28.1512 28.6999 28.3525 29.2499 28.4763C29.7236 28.6013 30.2236 28.6637 30.7249 28.6637C31.1999 28.6637 31.5374 28.6 31.7624 28.4875C31.9624 28.4 32.0999 28.1875 32.0999 27.9625C32.0999 27.7862 31.9999 27.625 31.7999 27.4625C31.5999 27.3013 31.1886 27.1137 30.5761 26.8737C29.9386 26.6487 29.3524 26.3487 28.8011 25.975C28.41 25.6949 28.0852 25.3321 27.8499 24.9125C27.6512 24.517 27.5529 24.0787 27.5636 23.6362C27.5636 23.0987 27.7136 22.5862 27.9899 22.1237C28.3024 21.6237 28.7636 21.2238 29.3011 20.9738C29.8874 20.675 30.6249 20.5375 31.5124 20.5375C32.0249 20.5375 32.5499 20.575 33.0624 20.65C33.4374 20.7 33.7999 20.8 34.1374 20.9375C34.1861 20.95 34.2374 21 34.2624 21.05C34.2749 21.1 34.2874 21.15 34.2874 21.2V23.2375C34.2874 23.2875 34.2624 23.3375 34.2249 23.3625C34.1124 23.3875 34.0499 23.3875 33.9999 23.3625C33.6249 23.1625 33.2249 23.025 32.7999 22.9375C32.3374 22.8375 31.8749 22.775 31.3999 22.775C31.1499 22.7625 30.8874 22.8 30.6486 22.8625C30.4874 22.9 30.3486 22.9875 30.2611 23.1125C30.1986 23.2125 30.1611 23.3375 30.1611 23.45C30.1611 23.5625 30.2111 23.675 30.2874 23.775C30.3999 23.9125 30.5486 24.025 30.7124 24.1125C30.9986 24.2625 31.2999 24.4 31.5986 24.525C32.2749 24.75 32.9249 25.0625 33.5249 25.4375C33.9374 25.6987 34.2749 26.05 34.5111 26.475C34.7111 26.8725 34.8111 27.3125 34.7986 27.7612C34.8124 28.35 34.6374 28.9362 34.3124 29.425V29.425Z" fill="white"/>
</svg>
