<svg width="50" height="50" viewBox="0 0 50 50" fill="none" xmlns="http://www.w3.org/2000/svg">
<path d="M25 49.9883C38.8071 49.9883 50 38.7981 50 24.9942C50 11.1903 38.8071 0 25 0C11.1929 0 0 11.1903 0 24.9942C0 38.7981 11.1929 49.9883 25 49.9883Z" fill="#27CCE9"/>
<path d="M15.1455 24.9214L10.2855 29.3864C10.2855 29.3864 9.78545 29.7614 10.2855 30.4326L12.5417 32.5077C12.5417 32.5077 13.078 33.0889 13.8692 32.4264L19.0205 28.4789L15.1455 24.9214Z" fill="white"/>
<path d="M23.6752 24.9575L32.5877 18.08L32.5289 11.1987C32.5289 11.1987 32.1477 9.69623 30.8789 10.4787L19.0201 21.3875L23.6752 24.9575V24.9575Z" fill="white"/>
<path d="M31.1402 39.6121C31.6577 40.1471 32.2852 39.9721 32.2852 39.9721L39.2302 36.5134C40.1189 35.9009 39.9939 35.1409 39.9939 35.1409V14.4846C39.9939 13.5771 39.0752 13.2633 39.0752 13.2633L33.0552 10.3296C31.7402 9.50832 30.8789 10.4783 30.8789 10.4783C30.8789 10.4783 31.9864 9.67207 32.5289 11.1983V38.5109C32.5289 38.6984 32.4889 38.8821 32.4102 39.0484C32.2514 39.3721 31.9077 39.6734 31.0827 39.5484L31.1402 39.6121V39.6121Z" fill="white"/>
<path d="M10.2851 20.462C10.2851 20.462 9.55509 19.9283 10.4313 19.2183L12.4751 17.3708C12.4751 17.3708 13.0589 16.7495 13.6776 17.2908L32.5289 31.7183V38.6358C32.5289 38.6358 32.5201 39.7233 31.1414 39.6033L10.2838 20.4608L10.2851 20.462Z" fill="white"/>
</svg>
