<svg width="861" height="632" viewBox="0 0 861 632" fill="none" xmlns="http://www.w3.org/2000/svg">
<path d="M818.104 356.7H655.875C649.973 356.693 644.314 354.394 640.141 350.306C635.967 346.218 633.619 340.676 633.613 334.894V84.2425C633.619 78.4612 635.967 72.9187 640.141 68.8307C644.314 64.7428 649.973 62.4434 655.875 62.4369H818.104C824.006 62.4434 829.665 64.7428 833.838 68.8307C838.012 72.9187 840.359 78.4612 840.366 84.2425V334.894C840.359 340.676 838.012 346.218 833.838 350.306C829.665 354.394 824.006 356.693 818.104 356.7V356.7Z" fill="#E6E6E6"/>
<path d="M820.794 75.4485H655.569C653.721 75.4507 651.95 76.1706 650.644 77.4503C649.337 78.7299 648.602 80.4649 648.6 82.2746V336.195C648.603 338.004 649.338 339.739 650.644 341.019C651.95 342.298 653.721 343.018 655.569 343.021H820.794C822.642 343.019 824.413 342.299 825.719 341.019C827.026 339.739 827.761 338.005 827.763 336.195V82.2746C827.761 80.4649 827.026 78.7299 825.719 77.4503C824.413 76.1706 822.642 75.4507 820.794 75.4485V75.4485Z" fill="white"/>
<path d="M659.84 62.4368C659.841 61.9946 660.02 61.5706 660.34 61.2579C660.659 60.9451 661.092 60.7692 661.543 60.7687H673.124C673.576 60.7687 674.009 60.9444 674.328 61.2573C674.648 61.5701 674.827 61.9944 674.827 62.4368C674.827 62.8793 674.648 63.3036 674.328 63.6164C674.009 63.9293 673.576 64.105 673.124 64.105H661.543C661.092 64.1045 660.659 63.9285 660.34 63.6158C660.02 63.3031 659.841 62.8791 659.84 62.4368Z" fill="#E6E6E6"/>
<path d="M678.915 62.4368C678.915 61.9946 679.095 61.5706 679.414 61.2579C679.733 60.9451 680.166 60.7692 680.618 60.7687H692.199C692.65 60.7687 693.083 60.9444 693.403 61.2573C693.722 61.5701 693.902 61.9944 693.902 62.4368C693.902 62.8793 693.722 63.3036 693.403 63.6164C693.083 63.9293 692.65 64.105 692.199 64.105H680.618C680.166 64.1045 679.733 63.9286 679.414 63.6158C679.095 63.3031 678.915 62.8791 678.915 62.4368Z" fill="#E6E6E6"/>
<path d="M793.361 62.4368C793.362 61.9946 793.541 61.5706 793.86 61.2579C794.18 60.9451 794.613 60.7692 795.064 60.7687H806.645C807.097 60.7687 807.53 60.9444 807.849 61.2573C808.169 61.5701 808.348 61.9944 808.348 62.4368C808.348 62.8793 808.169 63.3036 807.849 63.6164C807.53 63.9293 807.097 64.105 806.645 64.105H795.064C794.613 64.1045 794.18 63.9286 793.86 63.6158C793.541 63.3031 793.362 62.8791 793.361 62.4368V62.4368Z" fill="#E6E6E6"/>
<path d="M761.078 337.79C761.078 339.545 761.043 341.293 760.962 343.021H655.569C653.721 343.018 651.95 342.298 650.644 341.019C649.338 339.739 648.603 338.004 648.6 336.195V208.387C679.985 213.354 708.54 229.103 729.15 252.814C749.76 276.525 761.078 306.649 761.078 337.79Z" fill="#F2F2F2"/>
<path d="M757.499 140.701H718.193C716.404 140.701 714.954 142.121 714.954 143.873V147.832C714.954 149.584 716.404 151.004 718.193 151.004H757.499C759.287 151.004 760.737 149.584 760.737 147.832V143.873C760.737 142.121 759.287 140.701 757.499 140.701Z" fill="#5254D8"/>
<path d="M782.48 161.307H693.211C691.422 161.307 689.972 162.727 689.972 164.479V168.438C689.972 170.19 691.422 171.61 693.211 171.61H782.48C784.269 171.61 785.719 170.19 785.719 168.438V164.479C785.719 162.727 784.269 161.307 782.48 161.307Z" fill="#E6E6E6"/>
<path d="M782.48 181.913H693.211C691.422 181.913 689.972 183.333 689.972 185.085V189.044C689.972 190.796 691.422 192.216 693.211 192.216H782.48C784.269 192.216 785.719 190.796 785.719 189.044V185.085C785.719 183.333 784.269 181.913 782.48 181.913Z" fill="#E6E6E6"/>
<path d="M767.194 325.667C766.682 325.69 766.175 325.559 765.743 325.29C765.31 325.022 764.971 324.63 764.774 324.167C764.576 323.704 764.529 323.192 764.638 322.702C764.747 322.211 765.007 321.766 765.383 321.425L765.554 320.758C765.532 320.705 765.509 320.652 765.486 320.598C764.971 319.405 764.106 318.388 763.003 317.675C761.899 316.961 760.604 316.583 759.282 316.588C757.959 316.593 756.667 316.98 755.569 317.702C754.471 318.423 753.614 319.447 753.108 320.643C751.083 325.419 748.506 330.204 747.871 335.254C747.591 337.486 747.709 339.748 748.219 341.941C743.464 331.781 740.995 320.738 740.979 309.562C740.978 306.757 741.137 303.955 741.456 301.167C741.719 298.882 742.084 296.614 742.551 294.361C745.1 282.14 750.572 270.685 758.518 260.937C762.364 258.881 765.474 255.721 767.429 251.88C768.138 250.5 768.638 249.026 768.916 247.506C768.482 247.561 768.041 247.596 767.607 247.624C767.472 247.631 767.33 247.638 767.195 247.645L767.144 247.647C766.667 247.668 766.194 247.554 765.782 247.317C765.37 247.081 765.037 246.734 764.822 246.316C764.607 245.899 764.52 245.429 764.571 244.964C764.622 244.5 764.81 244.059 765.11 243.696C765.298 243.47 765.485 243.245 765.673 243.019C765.957 242.671 766.249 242.329 766.533 241.981C766.566 241.948 766.597 241.913 766.626 241.877C766.953 241.48 767.28 241.089 767.607 240.692C767.01 239.784 766.207 239.024 765.26 238.47C761.981 236.589 757.458 237.892 755.09 240.797C752.714 243.702 752.266 247.777 753.091 251.407C753.903 254.495 755.245 257.425 757.06 260.073C756.882 260.296 756.697 260.512 756.519 260.735C753.269 264.828 750.436 269.224 748.061 273.859C748.639 268.667 747.95 263.414 746.05 258.533C744.125 253.985 740.517 250.154 737.34 246.221C733.523 241.498 725.697 243.559 725.024 249.547C725.018 249.605 725.012 249.663 725.005 249.721C725.477 249.982 725.939 250.258 726.391 250.551C726.959 250.923 727.399 251.454 727.654 252.075C727.908 252.695 727.965 253.377 727.818 254.03C727.67 254.683 727.324 255.277 726.826 255.735C726.328 256.192 725.7 256.491 725.025 256.593L724.956 256.603C725.124 258.27 725.421 259.921 725.845 261.543C727.072 266.071 729.242 270.301 732.217 273.969C735.192 277.638 738.909 280.664 743.134 282.86C743.412 282.999 743.682 283.138 743.959 283.271C741.573 289.894 740.077 296.792 739.507 303.793C739.185 307.924 739.204 312.073 739.564 316.201L739.543 316.054C738.632 311.465 736.133 307.323 732.466 304.33C727.02 299.948 719.326 298.334 713.451 294.812C712.827 294.42 712.101 294.21 711.359 294.208C710.617 294.207 709.89 294.413 709.263 294.802C708.637 295.192 708.138 295.749 707.824 296.408C707.51 297.066 707.395 297.799 707.493 298.519C707.501 298.571 707.508 298.622 707.517 298.673C708.392 299.023 709.245 299.425 710.07 299.878C710.542 300.139 711.004 300.416 711.456 300.709C712.024 301.08 712.464 301.611 712.718 302.232C712.973 302.853 713.03 303.534 712.882 304.188C712.734 304.841 712.389 305.435 711.89 305.892C711.392 306.35 710.764 306.649 710.089 306.751L710.02 306.761C709.97 306.768 709.928 306.775 709.878 306.782C711.374 310.282 713.475 313.503 716.087 316.305C719.314 319.697 723.214 322.407 727.548 324.27C731.882 326.132 736.559 327.108 741.292 327.138H741.299C742.584 332.606 744.446 337.929 746.854 343.021H766.697C766.768 342.805 766.832 342.582 766.896 342.366C765.059 342.479 763.215 342.372 761.405 342.046C762.878 340.276 764.35 338.493 765.822 336.723C765.855 336.69 765.886 336.655 765.914 336.619C766.661 335.713 767.415 334.815 768.162 333.909L768.162 333.908C768.202 331.132 767.877 328.362 767.195 325.668L767.194 325.667ZM744.471 281.884L744.482 281.871L744.471 281.898V281.884ZM740.076 320.694L739.905 320.318C739.913 320.046 739.913 319.774 739.905 319.496C739.905 319.419 739.891 319.342 739.891 319.266C739.955 319.746 740.012 320.227 740.083 320.708L740.076 320.694Z" fill="#338A2B"/>
<path d="M812.535 97.8662H663.828C663.506 97.8593 663.2 97.7292 662.975 97.5039C662.75 97.2786 662.624 96.9759 662.624 96.6607C662.624 96.3456 662.75 96.0429 662.975 95.8176C663.2 95.5923 663.506 95.4622 663.828 95.4553H812.535C812.857 95.4622 813.163 95.5923 813.388 95.8176C813.613 96.0429 813.739 96.3456 813.739 96.6607C813.739 96.9759 813.613 97.2786 813.388 97.5039C813.163 97.7292 812.857 97.8593 812.535 97.8662V97.8662Z" fill="#CACACA"/>
<path d="M671.762 91.9694C673.76 91.9694 675.379 90.3478 675.379 88.3474C675.379 86.347 673.76 84.7254 671.762 84.7254C669.764 84.7254 668.145 86.347 668.145 88.3474C668.145 90.3478 669.764 91.9694 671.762 91.9694Z" fill="#3F3D56"/>
<path d="M684.258 91.9694C686.255 91.9694 687.875 90.3478 687.875 88.3474C687.875 86.347 686.255 84.7254 684.258 84.7254C682.26 84.7254 680.64 86.347 680.64 88.3474C680.64 90.3478 682.26 91.9694 684.258 91.9694Z" fill="#3F3D56"/>
<path d="M696.753 91.9694C698.751 91.9694 700.371 90.3478 700.371 88.3474C700.371 86.347 698.751 84.7254 696.753 84.7254C694.756 84.7254 693.136 86.347 693.136 88.3474C693.136 90.3478 694.756 91.9694 696.753 91.9694Z" fill="#3F3D56"/>
<path d="M806.723 86.1247H798.628C798.467 86.1278 798.315 86.1925 798.202 86.3047C798.09 86.417 798.027 86.5679 798.027 86.7251C798.027 86.8823 798.09 87.0332 798.202 87.1455C798.315 87.2577 798.467 87.3223 798.628 87.3254H806.723C806.883 87.3223 807.036 87.2577 807.148 87.1455C807.261 87.0332 807.324 86.8823 807.324 86.7251C807.324 86.5679 807.261 86.417 807.148 86.3047C807.036 86.1925 806.883 86.1278 806.723 86.1247V86.1247Z" fill="#27296D"/>
<path d="M806.723 88.3783H798.628C798.467 88.3814 798.315 88.446 798.202 88.5583C798.09 88.6705 798.027 88.8214 798.027 88.9786C798.027 89.1358 798.09 89.2868 798.202 89.399C798.315 89.5113 798.467 89.5759 798.628 89.579H806.723C806.883 89.5759 807.036 89.5113 807.148 89.399C807.261 89.2868 807.324 89.1358 807.324 88.9786C807.324 88.8214 807.261 88.6705 807.148 88.5583C807.036 88.446 806.883 88.3814 806.723 88.3783V88.3783Z" fill="#27296D"/>
<path d="M806.723 90.6289H798.628C798.467 90.632 798.315 90.6966 798.202 90.8088C798.09 90.9211 798.027 91.072 798.027 91.2292C798.027 91.3864 798.09 91.5374 798.202 91.6496C798.315 91.7619 798.467 91.8265 798.628 91.8296H806.723C806.883 91.8265 807.036 91.7619 807.148 91.6496C807.261 91.5374 807.324 91.3864 807.324 91.2292C807.324 91.072 807.261 90.9211 807.148 90.8088C807.036 90.6966 806.883 90.632 806.723 90.6289Z" fill="#27296D"/>
<path d="M565.446 208.483H479.229C478.009 208.484 476.84 208.961 475.979 209.806C475.118 210.652 474.635 211.799 474.636 212.993V346.398H570.051V212.993C570.051 212.401 569.932 211.814 569.701 211.267C569.47 210.719 569.13 210.222 568.703 209.803C568.275 209.384 567.767 209.052 567.208 208.825C566.65 208.599 566.051 208.482 565.446 208.483ZM522.627 284.282C519.931 284.269 517.349 283.215 515.442 281.347C513.536 279.48 512.459 276.951 512.447 274.31V258.923C512.449 256.279 513.523 253.745 515.432 251.877C517.341 250.009 519.929 248.959 522.627 248.959C525.326 248.959 527.914 250.009 529.823 251.877C531.732 253.745 532.806 256.279 532.808 258.923V274.31C532.796 276.951 531.719 279.48 529.812 281.347C527.906 283.215 525.324 284.269 522.627 284.282V284.282Z" fill="#E6E6E6"/>
<path d="M474.34 342.131V355.002C474.341 355.669 474.612 356.308 475.094 356.78C475.575 357.251 476.228 357.517 476.909 357.518H567.778C568.458 357.515 569.109 357.249 569.591 356.778C570.072 356.306 570.343 355.668 570.347 355.002V342.131L474.34 342.131Z" fill="#CCCCCC"/>
<path d="M708.213 0.289291H339.67C336.504 0.294225 333.468 1.52845 331.229 3.7215C328.99 5.91455 327.73 8.88755 327.725 11.989V255.585C327.728 258.687 328.988 261.661 331.227 263.855C333.467 266.048 336.503 267.282 339.67 267.285H708.213C711.38 267.282 714.416 266.048 716.656 263.855C718.895 261.661 720.155 258.687 720.158 255.585V11.989C720.153 8.88755 718.892 5.91455 716.653 3.7215C714.415 1.52845 711.379 0.294224 708.213 0.289291Z" fill="#E6E6E6"/>
<path d="M705.137 8.73985H342.749C341.054 8.74346 339.429 9.40563 338.232 10.5811C337.034 11.7565 336.361 13.3493 336.361 15.0099V252.568C336.364 254.227 337.038 255.816 338.235 256.989C339.433 258.162 341.056 258.822 342.749 258.825H705.137C706.83 258.822 708.453 258.162 709.65 256.989C710.848 255.816 711.522 254.227 711.525 252.568V15.0099C711.524 13.3493 710.852 11.7565 709.654 10.5811C708.457 9.40563 706.832 8.74346 705.137 8.73985Z" fill="white"/>
<path d="M711.525 15.0099V252.568C711.522 254.227 710.848 255.816 709.65 256.989C708.453 258.162 706.83 258.822 705.137 258.825H577.351C563.214 245.984 551.617 230.699 543.14 213.738C542.582 212.645 542.051 211.54 541.546 210.421C533.823 194.004 529.146 176.372 527.734 158.349C527.641 157.243 527.562 156.137 527.509 155.018C527.336 152.157 527.256 149.256 527.256 146.342C527.231 126.963 530.967 107.755 538.266 89.7427C538.704 88.624 539.169 87.5182 539.647 86.4125C554.336 52.6076 580.878 25.0593 614.483 8.73985H705.137C706.832 8.74346 708.457 9.40563 709.654 10.5811C710.852 11.7565 711.524 13.3493 711.525 15.0099Z" fill="#5254D8"/>
<path d="M686.92 41.47H347.835C347.483 41.4626 347.147 41.3203 346.9 41.0734C346.654 40.8265 346.515 40.4947 346.515 40.1492C346.515 39.8037 346.654 39.4719 346.9 39.2251C347.147 38.9782 347.483 38.8358 347.835 38.8284H686.92C687.273 38.8358 687.608 38.9782 687.855 39.2251C688.102 39.4719 688.24 39.8037 688.24 40.1492C688.24 40.4947 688.102 40.8265 687.855 41.0734C687.608 41.3203 687.273 41.4626 686.92 41.47V41.47Z" fill="#CACACA"/>
<path d="M370.917 32.0847C375.282 32.0847 378.82 28.5419 378.82 24.1717C378.82 19.8015 375.282 16.2587 370.917 16.2587C366.553 16.2587 363.015 19.8015 363.015 24.1717C363.015 28.5419 366.553 32.0847 370.917 32.0847Z" fill="#27296D"/>
<path d="M398.217 32.0847C402.581 32.0847 406.12 28.5419 406.12 24.1717C406.12 19.8015 402.581 16.2587 398.217 16.2587C393.853 16.2587 390.314 19.8015 390.314 24.1717C390.314 28.5419 393.853 32.0847 398.217 32.0847Z" fill="#27296D"/>
<path d="M425.517 32.0847C429.881 32.0847 433.419 28.5419 433.419 24.1717C433.419 19.8015 429.881 16.2587 425.517 16.2587C421.152 16.2587 417.614 19.8015 417.614 24.1717C417.614 28.5419 421.152 32.0847 425.517 32.0847Z" fill="#27296D"/>
<path d="M670.483 18.2199H651.091C650.707 18.2274 650.341 18.3822 650.071 18.6511C649.802 18.92 649.651 19.2816 649.651 19.6582C649.651 20.0348 649.802 20.3964 650.071 20.6653C650.341 20.9342 650.707 21.089 651.091 21.0964H670.483C670.868 21.089 671.234 20.9342 671.503 20.6653C671.772 20.3964 671.923 20.0348 671.923 19.6582C671.923 19.2816 671.772 18.92 671.503 18.6511C671.234 18.3822 670.868 18.2274 670.483 18.2199V18.2199Z" fill="#27296D"/>
<path d="M670.483 23.6187H651.091C650.707 23.6261 650.341 23.7809 650.071 24.0498C649.802 24.3187 649.651 24.6803 649.651 25.0569C649.651 25.4335 649.802 25.7951 650.071 26.064C650.341 26.3329 650.707 26.4877 651.091 26.4951H670.483C670.868 26.4877 671.234 26.3329 671.503 26.064C671.772 25.7951 671.923 25.4335 671.923 25.0569C671.923 24.6803 671.772 24.3187 671.503 24.0498C671.234 23.7809 670.868 23.6261 670.483 23.6187V23.6187Z" fill="#27296D"/>
<path d="M670.483 29.0103H651.091C650.707 29.0177 650.341 29.1725 650.071 29.4414C649.802 29.7103 649.651 30.0719 649.651 30.4485C649.651 30.8251 649.802 31.1867 650.071 31.4556C650.341 31.7245 650.707 31.8793 651.091 31.8867H670.483C670.868 31.8793 671.234 31.7245 671.503 31.4556C671.772 31.1867 671.923 30.8251 671.923 30.4485C671.923 30.0719 671.772 29.7103 671.503 29.4414C671.234 29.1725 670.868 29.0177 670.483 29.0103V29.0103Z" fill="#27296D"/>
<path d="M451.659 118.633H404.241C402.452 118.633 401.002 120.053 401.002 121.805V126.749C401.002 128.501 402.452 129.921 404.241 129.921H451.659C453.448 129.921 454.898 128.501 454.898 126.749V121.805C454.898 120.053 453.448 118.633 451.659 118.633Z" fill="#5254D8"/>
<path d="M479.03 141.21H376.869C375.081 141.21 373.631 142.63 373.631 144.382V149.326C373.631 151.078 375.081 152.498 376.869 152.498H479.03C480.819 152.498 482.269 151.078 482.269 149.326V144.382C482.269 142.63 480.819 141.21 479.03 141.21Z" fill="#E6E6E6"/>
<path d="M479.03 163.787H376.869C375.081 163.787 373.631 165.207 373.631 166.959V171.903C373.631 173.655 375.081 175.076 376.869 175.076H479.03C480.819 175.076 482.269 173.655 482.269 171.903V166.959C482.269 165.207 480.819 163.787 479.03 163.787Z" fill="#E6E6E6"/>
<path d="M382.498 245.205C382.506 249.855 381.66 254.468 380.001 258.825H342.749C341.056 258.822 339.433 258.162 338.235 256.989C337.038 255.816 336.364 254.227 336.361 252.568V206.675C338.443 206.345 340.548 206.18 342.656 206.18C347.888 206.18 353.069 207.189 357.903 209.15C362.737 211.111 367.13 213.986 370.829 217.61C374.529 221.234 377.464 225.536 379.466 230.271C381.468 235.006 382.498 240.08 382.498 245.205V245.205Z" fill="#5E67E4"/>
<path opacity="0.2" d="M711.857 89.7427V86.4125H654.87V47.8169H651.483V86.4125H586.169V47.8169H582.783V86.4125H539.647C539.169 87.5182 538.704 88.624 538.266 89.7427H582.783V155.018H527.509C527.562 156.137 527.641 157.243 527.734 158.349H582.783V210.421H541.546C542.051 211.54 542.582 212.645 543.14 213.738H582.783V257.511H586.169V213.738H651.483V257.511H654.87V213.738H711.857V210.421H654.87V210.421C654.87 203.583 656.245 196.811 658.916 190.494C661.588 184.176 665.504 178.436 670.44 173.6C675.377 168.765 681.238 164.929 687.688 162.312C694.137 159.695 701.05 158.349 708.032 158.349H711.857V155.018H654.87V89.7427H711.857ZM651.483 210.421H586.169V158.349H651.483V210.421ZM651.483 155.018H586.169V153.718C586.169 136.75 593.05 120.478 605.299 108.48C617.548 96.4829 634.161 89.7427 651.483 89.7427H651.483V155.018Z" fill="black"/>
<path d="M665.973 234.179C665.246 234.212 664.527 234.025 663.912 233.644C663.297 233.262 662.817 232.705 662.536 232.048C662.255 231.39 662.188 230.664 662.343 229.967C662.497 229.271 662.867 228.638 663.401 228.154C663.491 227.806 663.555 227.555 663.644 227.207C663.612 227.131 663.58 227.056 663.548 226.98C660.281 219.349 649.207 219.401 645.968 227.044C643.093 233.827 639.432 240.622 638.53 247.794C638.133 250.964 638.301 254.177 639.025 257.291C632.272 242.862 628.765 227.179 628.743 211.305C628.741 207.322 628.967 203.342 629.419 199.384C629.793 196.138 630.312 192.916 630.975 189.717C634.595 172.36 642.366 156.091 653.651 142.247C659.113 139.328 663.53 134.839 666.308 129.385C667.314 127.425 668.025 125.332 668.419 123.172C667.803 123.251 667.176 123.301 666.56 123.34C666.368 123.35 666.166 123.36 665.974 123.37L665.902 123.373C665.225 123.403 664.553 123.24 663.968 122.905C663.383 122.57 662.909 122.076 662.604 121.483C662.299 120.89 662.176 120.223 662.248 119.563C662.321 118.903 662.587 118.278 663.014 117.762C663.28 117.442 663.546 117.121 663.813 116.801C664.217 116.306 664.631 115.821 665.035 115.326C665.081 115.279 665.125 115.23 665.166 115.178C665.631 114.614 666.095 114.06 666.56 113.496C665.712 112.207 664.571 111.127 663.227 110.34C658.57 107.669 652.146 109.519 648.783 113.645C645.409 117.77 644.773 123.558 645.944 128.713C646.944 133.125 649.126 137.172 651.581 141.02C651.328 141.337 651.065 141.644 650.813 141.96C646.197 147.774 642.173 154.018 638.801 160.6C639.621 153.226 638.642 145.766 635.944 138.834C633.211 132.374 628.086 126.933 623.574 121.348C618.153 114.64 607.038 117.568 606.083 126.071C606.074 126.154 606.065 126.236 606.056 126.318C606.727 126.689 607.383 127.082 608.025 127.498C608.831 128.026 609.456 128.78 609.817 129.661C610.179 130.543 610.26 131.511 610.05 132.438C609.84 133.366 609.349 134.21 608.642 134.859C607.934 135.509 607.042 135.934 606.084 136.079L605.986 136.093C606.224 138.46 606.646 140.805 607.248 143.108C608.992 149.539 612.073 155.547 616.298 160.757C620.524 165.967 625.802 170.265 631.803 173.383C632.197 173.581 632.581 173.779 632.975 173.967C629.586 183.373 627.461 193.17 626.652 203.113C626.194 208.98 626.221 214.872 626.733 220.734L626.702 220.526C625.409 214.008 621.859 208.127 616.652 203.875C608.918 197.652 597.991 195.36 589.647 190.358C585.63 187.95 580.483 191.062 581.184 195.623C581.196 195.696 581.207 195.769 581.218 195.842C582.462 196.338 583.673 196.909 584.845 197.553C585.515 197.924 586.171 198.317 586.813 198.732C587.619 199.26 588.244 200.014 588.606 200.896C588.967 201.778 589.048 202.746 588.839 203.673C588.629 204.601 588.138 205.444 587.43 206.094C586.722 206.744 585.831 207.169 584.872 207.313L584.774 207.328C584.703 207.338 584.643 207.348 584.572 207.358C586.697 212.328 589.68 216.903 593.39 220.883C597.973 225.699 603.512 229.548 609.667 232.194C615.823 234.839 622.465 236.226 629.187 236.267H629.197C631.022 244.034 633.666 251.594 637.086 258.825H665.267C665.368 258.518 665.459 258.202 665.55 257.895C662.941 258.055 660.323 257.903 657.752 257.44C659.843 254.927 661.934 252.394 664.025 249.881C664.071 249.834 664.115 249.784 664.156 249.733C665.217 248.446 666.287 247.17 667.348 245.884L667.348 245.882C667.405 241.94 666.943 238.007 665.974 234.18L665.973 234.179ZM633.702 171.998L633.717 171.978L633.702 172.017V171.998ZM627.46 227.116L627.217 226.581C627.228 226.196 627.228 225.81 627.217 225.414C627.217 225.305 627.197 225.196 627.197 225.087C627.288 225.77 627.369 226.453 627.47 227.135L627.46 227.116Z" fill="#27296D"/>
<path d="M415.03 169.62V132.522C415.03 126.827 412.72 121.366 408.609 117.339C404.498 113.313 398.923 111.05 393.109 111.05H312.866C307.052 111.05 301.476 113.313 297.365 117.339C293.254 121.366 290.945 126.827 290.945 132.522V336.047C290.945 341.741 293.254 347.203 297.365 351.229C301.476 355.256 307.052 357.518 312.866 357.518H393.109C395.988 357.518 398.838 356.963 401.498 355.884C404.157 354.805 406.574 353.223 408.609 351.229C410.645 349.236 412.259 346.869 413.361 344.263C414.463 341.658 415.03 338.866 415.03 336.047V196.028C415.396 196.028 415.748 195.885 416.007 195.631C416.267 195.377 416.412 195.033 416.412 194.673V170.975C416.412 170.615 416.267 170.271 416.007 170.017C415.748 169.763 415.396 169.62 415.03 169.62V169.62Z" fill="#E6E6E6"/>
<path d="M410.364 132.669V335.9C410.365 340.121 408.665 344.173 405.634 347.173C402.602 350.174 398.485 351.882 394.175 351.926C394.116 351.932 394.056 351.934 393.996 351.933H313.362C309.021 351.933 304.858 350.243 301.788 347.237C298.719 344.23 296.994 340.152 296.994 335.9V132.669C296.994 128.417 298.719 124.339 301.788 121.333C304.858 118.326 309.021 116.637 313.362 116.636H323.148C322.666 117.793 322.483 119.049 322.614 120.291C322.744 121.534 323.185 122.727 323.896 123.764C324.607 124.8 325.568 125.65 326.694 126.238C327.819 126.826 329.075 127.134 330.35 127.135H376.321C377.595 127.131 378.85 126.822 379.973 126.233C381.097 125.644 382.056 124.794 382.766 123.758C383.477 122.722 383.916 121.53 384.047 120.289C384.178 119.047 383.996 117.793 383.516 116.636H393.996C398.337 116.637 402.5 118.326 405.57 121.333C408.639 124.339 410.364 128.417 410.364 132.669Z" fill="white"/>
<path d="M394.377 345.66C394.377 347.766 394.309 349.854 394.175 351.926C394.116 351.932 394.056 351.934 393.996 351.933H313.362C309.021 351.933 304.858 350.243 301.788 347.237C298.719 344.23 296.994 340.152 296.994 335.9V245.332C323.265 246.629 348.024 257.766 366.149 276.439C384.274 295.113 394.38 319.894 394.377 345.66V345.66Z" fill="#F2F2F2"/>
<path d="M291.388 190.375C290.894 190.374 290.419 190.181 290.069 189.839C289.72 189.496 289.523 189.031 289.522 188.547V176.118C289.522 175.633 289.719 175.169 290.069 174.826C290.419 174.483 290.893 174.29 291.388 174.29C291.883 174.29 292.358 174.483 292.708 174.826C293.058 175.169 293.254 175.633 293.254 176.118V188.547C293.254 189.031 293.057 189.496 292.707 189.839C292.357 190.181 291.883 190.374 291.388 190.375Z" fill="#E6E6E6"/>
<path d="M363.58 180.451H343.779C341.99 180.451 340.54 181.871 340.54 183.623V188.567C340.54 190.319 341.99 191.739 343.779 191.739H363.58C365.368 191.739 366.818 190.319 366.818 188.567V183.623C366.818 181.871 365.368 180.451 363.58 180.451Z" fill="#5254D8"/>
<path d="M390.951 203.028H316.407C314.618 203.028 313.168 204.448 313.168 206.2V211.144C313.168 212.896 314.618 214.317 316.407 214.317H390.951C392.74 214.317 394.19 212.896 394.19 211.144V206.2C394.19 204.448 392.74 203.028 390.951 203.028Z" fill="#E6E6E6"/>
<path d="M390.951 225.605H316.407C314.618 225.605 313.168 227.025 313.168 228.777V233.721C313.168 235.473 314.618 236.894 316.407 236.894H390.951C392.74 236.894 394.19 235.473 394.19 233.721V228.777C394.19 227.025 392.74 225.605 390.951 225.605Z" fill="#E6E6E6"/>
<path d="M373.015 340.368C372.674 340.383 372.336 340.295 372.047 340.116C371.759 339.937 371.534 339.676 371.402 339.367C371.27 339.059 371.238 338.718 371.311 338.391C371.384 338.064 371.557 337.767 371.808 337.54L371.922 337.096C371.907 337.06 371.892 337.025 371.877 336.989C371.533 336.194 370.957 335.516 370.221 335.041C369.486 334.565 368.623 334.313 367.742 334.316C366.86 334.32 365.999 334.578 365.267 335.059C364.535 335.54 363.964 336.222 363.627 337.019C362.278 340.202 360.56 343.391 360.137 346.756C359.95 348.244 360.029 349.752 360.369 351.213C357.2 344.442 355.554 337.083 355.544 329.634C355.543 327.765 355.649 325.897 355.861 324.039C356.037 322.516 356.28 321.004 356.591 319.503C358.29 311.358 361.937 303.724 367.232 297.227C369.796 295.857 371.868 293.751 373.172 291.191C373.644 290.272 373.977 289.289 374.162 288.276C373.873 288.313 373.579 288.336 373.29 288.355C373.2 288.359 373.105 288.364 373.015 288.369L372.981 288.37C372.663 288.384 372.348 288.308 372.074 288.15C371.799 287.993 371.577 287.761 371.434 287.483C371.291 287.205 371.233 286.892 371.267 286.582C371.301 286.272 371.426 285.979 371.626 285.737C371.751 285.587 371.876 285.436 372.001 285.286C372.19 285.054 372.385 284.826 372.574 284.594C372.596 284.572 372.617 284.549 372.636 284.524C372.854 284.26 373.072 284 373.29 283.735C372.892 283.13 372.357 282.623 371.726 282.254C369.541 281.001 366.526 281.869 364.948 283.805C363.365 285.741 363.066 288.457 363.616 290.876C364.157 292.934 365.051 294.887 366.261 296.651C366.142 296.8 366.019 296.944 365.901 297.092C363.734 299.821 361.846 302.75 360.264 305.84C360.649 302.379 360.189 298.878 358.923 295.625C357.64 292.594 355.236 290.041 353.118 287.42C352.558 286.716 351.797 286.19 350.932 285.91C350.067 285.629 349.137 285.606 348.258 285.843C347.38 286.08 346.593 286.567 345.997 287.242C345.401 287.918 345.023 288.751 344.91 289.636C344.906 289.675 344.902 289.714 344.898 289.752C345.212 289.926 345.52 290.11 345.821 290.306C346.2 290.553 346.493 290.907 346.663 291.321C346.832 291.735 346.87 292.189 346.772 292.624C346.674 293.059 346.443 293.455 346.111 293.76C345.779 294.065 345.36 294.264 344.911 294.332L344.865 294.339C344.977 295.45 345.175 296.55 345.457 297.631C346.275 300.649 347.721 303.468 349.704 305.913C351.687 308.358 354.164 310.375 356.98 311.838C357.165 311.931 357.345 312.024 357.53 312.112C355.94 316.526 354.942 321.124 354.563 325.79C354.348 328.542 354.36 331.308 354.6 334.058L354.586 333.961C353.979 330.902 352.314 328.142 349.87 326.147C346.241 323.227 341.113 322.151 337.197 319.804C336.781 319.542 336.297 319.403 335.803 319.401C335.308 319.4 334.824 319.538 334.406 319.797C333.989 320.057 333.656 320.428 333.447 320.867C333.238 321.306 333.161 321.794 333.226 322.275L333.242 322.377C333.826 322.61 334.394 322.878 334.944 323.18C335.258 323.354 335.566 323.539 335.868 323.734C336.246 323.981 336.539 324.335 336.709 324.749C336.878 325.163 336.917 325.617 336.818 326.052C336.72 326.487 336.489 326.883 336.157 327.188C335.825 327.493 335.407 327.692 334.957 327.76L334.911 327.767C334.877 327.772 334.849 327.777 334.816 327.781C335.813 330.114 337.213 332.261 338.954 334.128C341.104 336.388 343.704 338.195 346.592 339.436C349.481 340.677 352.598 341.328 355.752 341.347H355.757C356.613 344.992 357.854 348.54 359.459 351.933H372.683C372.731 351.789 372.773 351.641 372.816 351.497C371.592 351.572 370.363 351.5 369.157 351.283C370.138 350.104 371.119 348.915 372.1 347.736C372.122 347.714 372.143 347.691 372.162 347.666C372.66 347.063 373.162 346.464 373.66 345.86L373.66 345.86C373.687 344.01 373.47 342.164 373.015 340.368L373.015 340.368ZM357.871 311.188L357.878 311.179L357.871 311.197V311.188ZM354.942 337.053L354.828 336.802C354.833 336.621 354.833 336.44 354.828 336.254C354.828 336.203 354.819 336.152 354.819 336.101C354.861 336.422 354.899 336.742 354.946 337.062L354.942 337.053Z" fill="#338A2B"/>
<path d="M291.015 166.248C290.52 166.248 290.046 166.055 289.696 165.712C289.346 165.37 289.15 164.905 289.149 164.421V151.992C289.149 151.507 289.346 151.042 289.696 150.7C290.046 150.357 290.52 150.164 291.015 150.164C291.51 150.164 291.985 150.357 292.335 150.7C292.684 151.042 292.881 151.507 292.881 151.992V164.421C292.88 164.905 292.684 165.37 292.334 165.712C291.984 166.055 291.51 166.248 291.015 166.248V166.248Z" fill="#E6E6E6"/>
<path d="M340.651 118.727C340.651 118.242 340.848 117.778 341.198 117.435C341.548 117.093 342.022 116.9 342.517 116.899H355.205C355.7 116.899 356.175 117.092 356.525 117.435C356.875 117.777 357.071 118.242 357.071 118.727C357.071 119.212 356.875 119.677 356.525 120.019C356.175 120.362 355.7 120.555 355.205 120.555H342.517C342.022 120.554 341.548 120.361 341.198 120.019C340.848 119.676 340.651 119.212 340.651 118.727Z" fill="white"/>
<path d="M291.388 211.577C290.894 211.576 290.419 211.383 290.069 211.041C289.72 210.698 289.523 210.233 289.522 209.749V197.32C289.522 196.835 289.719 196.37 290.069 196.028C290.419 195.685 290.893 195.492 291.388 195.492C291.883 195.492 292.358 195.685 292.708 196.028C293.058 196.37 293.254 196.835 293.254 197.32V209.749C293.254 210.233 293.057 210.698 292.707 211.041C292.357 211.383 291.883 211.576 291.388 211.577V211.577Z" fill="#E6E6E6"/>
<path d="M362.296 120.555C363.327 120.555 364.162 119.736 364.162 118.727C364.162 117.718 363.327 116.899 362.296 116.899C361.266 116.899 360.43 117.718 360.43 118.727C360.43 119.736 361.266 120.555 362.296 120.555Z" fill="white"/>
<path d="M859.111 357.513L218.886 357.738C218.651 357.737 218.426 357.645 218.259 357.482C218.093 357.319 218 357.098 218 356.868C218 356.637 218.093 356.416 218.259 356.253C218.426 356.09 218.651 355.998 218.886 355.997L859.111 355.772C859.347 355.772 859.573 355.864 859.74 356.027C859.906 356.191 860 356.412 860 356.643C860 356.874 859.906 357.095 859.74 357.258C859.573 357.422 859.347 357.513 859.111 357.513Z" fill="#CACACA"/>
<path d="M277.138 579.859H286.524L290.99 544.397L277.136 544.398L277.138 579.859Z" fill="#FFB6B6"/>
<path d="M274.81 575.324L289.648 574.457V580.683L303.754 590.226C304.451 590.697 304.976 591.374 305.252 592.158C305.528 592.943 305.541 593.793 305.289 594.584C305.037 595.376 304.533 596.068 303.851 596.56C303.169 597.051 302.344 597.316 301.498 597.316H283.833L280.788 591.157L279.599 597.316H272.939L274.81 575.324Z" fill="#2F2E41"/>
<path d="M167.174 569.852L175.338 574.389L197.088 545.704L185.039 539.008L167.174 569.852Z" fill="#FFB6B6"/>
<path d="M167.434 564.782L180.776 571.2L177.639 576.615L185.1 591.734C185.469 592.481 185.584 593.323 185.429 594.139C185.274 594.954 184.857 595.7 184.239 596.267C183.621 596.833 182.834 597.192 181.994 597.29C181.153 597.388 180.302 597.219 179.566 596.81L164.202 588.271L164.657 581.443L160.519 586.225L154.727 583.005L167.434 564.782Z" fill="#2F2E41"/>
<path d="M311.832 285.753C310.63 285.924 309.48 286.35 308.464 287.003C307.447 287.656 306.59 288.519 305.951 289.532C305.312 290.544 304.908 291.682 304.766 292.864C304.625 294.046 304.75 295.245 305.132 296.374L290.769 308.551L296.195 318.906L316.232 301.43C318.127 300.675 319.674 299.265 320.579 297.468C321.484 295.67 321.684 293.61 321.141 291.678C320.599 289.745 319.352 288.075 317.636 286.983C315.921 285.891 313.856 285.453 311.833 285.753H311.832Z" fill="#FFB6B6"/>
<path d="M297.369 327.627C292.577 334.735 281.84 341.599 265.903 347.684C265.024 348.029 264.082 348.192 263.135 348.162C262.189 348.131 261.259 347.909 260.405 347.508C254.391 344.827 250.536 334.861 250.175 333.894L238.527 318.504C238.32 318.28 232.873 312.225 233.496 306.272C233.637 305.025 234.051 303.822 234.711 302.746C235.371 301.67 236.26 300.747 237.319 300.04C246.136 293.638 265.898 315.874 268.462 318.831L281.359 311.134L290.756 307.027L298.342 297.985L309.023 308.682L299.417 323.652C298.904 325.055 298.216 326.39 297.369 327.627V327.627Z" fill="#2F2E41"/>
<path d="M263.87 354.896C263.87 354.896 291.469 397.956 286.469 402.853C281.469 407.751 273.688 409.037 273.688 409.037L256.469 387.181L263.87 354.896Z" fill="#2F2E41"/>
<path d="M239.469 296.088L252.476 304.706C258.522 308.712 263.069 314.54 265.428 321.306C267.787 328.072 267.829 335.407 265.548 342.198L261.886 353.1L239.469 296.088Z" fill="#2F2E41"/>
<path d="M216.469 413.628L214.73 419.561L208.796 491.104L179.15 545.221L193.299 555.12L233.726 503.643L249.716 452.529L274.827 565.68L293.693 564.36L280.59 407.478L255.727 363.32L216.469 413.628Z" fill="#2F2E41"/>
<path d="M237.257 298.255L255.36 312.747C259.333 315.927 262.194 320.243 263.545 325.092V325.092C264.158 327.294 264.449 329.57 264.41 331.851L263.87 363.32L280.469 406.771C280.469 406.771 235.469 423.423 229.469 408.73C223.469 394.038 237.257 298.255 237.257 298.255Z" fill="#5254D8"/>
<path d="M242.671 416.357C220.191 416.357 214.713 416.523 214.358 416.452L214.002 416.382V403.138L219.469 379.345C218.83 371.959 217.333 362.218 217.469 353.878C217.959 323.734 216.446 294.288 216.446 294.288L228.344 283.531L233.749 286.976L243.776 296.797C255.43 324.89 264.678 351.339 264.736 353.038L265.469 382.284L262.469 394.038C248.897 403.421 261.298 416.357 242.671 416.357Z" fill="#2F2E41"/>
<path opacity="0.2" d="M221.489 320.549L218.756 337.257L237.257 344.732L221.489 320.549Z" fill="black"/>
<path opacity="0.2" d="M209.775 352.677C214.596 358.144 221.135 361.888 228.365 363.319C235.594 364.751 243.104 363.788 249.715 360.584L253.657 358.673L209.775 352.677Z" fill="black"/>
<path d="M272.806 348.592C271.998 347.703 271.001 346.998 269.885 346.528C268.769 346.057 267.561 345.831 266.346 345.867C265.131 345.903 263.939 346.2 262.854 346.736C261.769 347.271 260.817 348.034 260.066 348.969L241.777 343.94L235.946 354.081L261.875 360.828C263.563 361.961 265.616 362.448 267.646 362.197C269.676 361.946 271.542 360.974 272.889 359.466C274.236 357.958 274.972 356.018 274.957 354.014C274.942 352.01 274.176 350.081 272.806 348.592H272.806Z" fill="#FFB6B6"/>
<path d="M229.163 359.846C220.467 359.847 208.702 354.853 194.735 345.181C193.957 344.653 193.299 343.972 192.803 343.182C192.308 342.392 191.985 341.509 191.855 340.59C190.825 334.197 197.192 325.555 197.816 324.726L204.508 306.725C204.585 306.432 206.742 298.643 212.157 295.872C213.297 295.3 214.55 294.975 215.83 294.922C217.11 294.868 218.386 295.087 219.572 295.563C229.885 299.241 221.832 327.647 220.727 331.372L234.391 337.672L243.068 343.089L254.951 344.307L251.725 358.932L233.678 359.33C232.2 359.684 230.684 359.857 229.163 359.846V359.846Z" fill="#2F2E41"/>
<path d="M355.569 598.5H127.187C126.872 598.499 126.57 598.375 126.348 598.157C126.125 597.938 126 597.642 126 597.333C126 597.024 126.125 596.728 126.348 596.51C126.57 596.291 126.872 596.168 127.187 596.167H355.569C355.726 596.166 355.881 596.196 356.026 596.255C356.171 596.313 356.303 596.399 356.413 596.507C356.524 596.616 356.612 596.744 356.672 596.886C356.732 597.028 356.763 597.18 356.763 597.333C356.763 597.487 356.732 597.639 356.672 597.78C356.612 597.922 356.524 598.051 356.413 598.159C356.303 598.267 356.171 598.353 356.026 598.412C355.881 598.47 355.726 598.5 355.569 598.5Z" fill="#CACACA"/>
<path d="M339.67 572.636L340.151 562.026C345.173 559.397 350.775 558.008 356.469 557.98C348.632 564.256 349.611 576.354 344.298 584.794C342.62 587.414 340.362 589.63 337.691 591.279C335.02 592.928 332.004 593.967 328.867 594.319L322.309 598.252C321.409 593.338 321.607 588.291 322.89 583.46C324.173 578.628 326.511 574.126 329.741 570.264C331.575 568.116 333.678 566.202 336.001 564.568C337.571 568.624 339.67 572.636 339.67 572.636Z" fill="#38AF2D"/>
<path d="M253.416 282.479L248.904 283.426C248.875 281.577 248.639 279.738 248.203 277.939C247.793 280.142 246.928 282.239 245.663 284.104L219.786 289.516L194.943 263.836C194.905 250.996 202.185 241.239 215.237 241.239C216.023 241.239 216.838 241.276 217.663 241.35C224.715 240.194 231.949 241.763 237.844 245.727C243.738 249.691 247.832 255.74 249.264 262.601C258.515 271.524 255.16 276.769 253.416 282.479Z" fill="#2F2E41"/>
<path d="M229.126 283.335C239.13 283.335 247.24 275.391 247.24 265.593C247.24 255.794 239.13 247.85 229.126 247.85C219.122 247.85 211.013 255.794 211.013 265.593C211.013 275.391 219.122 283.335 229.126 283.335Z" fill="#FFB6B6"/>
<path d="M250.847 253.921C249.397 255.768 244.402 257.402 238.468 258.721C238.478 258.6 238.478 258.479 238.478 258.359C238.448 256.51 238.213 254.67 237.776 252.871C237.366 255.074 236.502 257.172 235.236 259.036C235.141 259.176 235.046 259.315 234.942 259.454C229.852 260.438 224.468 261.2 220.25 261.71C223.151 271.941 234.269 280.334 233.065 286.555L200.488 293.072C200.688 290.487 200.477 287.888 199.862 285.366C199.239 288.694 197.592 291.755 195.142 294.14L192.374 294.697L191.55 290.714C184.403 273.9 194.365 256.687 210.687 247.784C213.597 243.511 218.115 240.54 223.255 239.521L227.321 238.704C229.886 238.19 232.529 238.176 235.1 238.662C237.67 239.149 240.117 240.126 242.302 241.54C244.487 242.953 246.366 244.773 247.832 246.898C249.298 249.022 250.323 251.408 250.847 253.921Z" fill="#2F2E41"/>
</svg>
