<svg width="120" height="120" viewBox="0 0 120 120" fill="none" xmlns="http://www.w3.org/2000/svg">
<path d="M120 59.9963C120 78.0741 112.003 94.2905 99.3535 105.295C96.1966 108.042 92.7493 110.462 89.0563 112.502C84.9612 114.773 80.5758 116.582 75.9595 117.848C71.321 119.129 66.459 119.859 61.4407 119.978C60.9642 119.993 60.4802 119.993 60.0037 119.993C54.9556 119.993 50.0565 119.367 45.3807 118.198C39.789 116.798 34.5176 114.617 29.6705 111.773C11.9203 101.364 0 82.0723 0 59.9963C0 26.8636 26.8636 0 60.0037 0C93.1439 0 120 26.8636 120 59.9963Z" fill="#27296D"/>
<path d="M44.7552 73.8696C43.6756 72.1944 42.5885 70.5117 41.5089 68.8364C38.836 64.6967 36.0886 60.3411 35.6567 55.4419C34.9419 47.2965 40.6303 40.2008 45.0158 33.2914C47.5473 29.2931 49.8107 24.9747 53.4665 21.9667C60.8376 15.8911 72.3707 16.993 80.0397 22.6814C87.7086 28.3699 91.9823 37.647 94.015 46.9763C94.9606 51.3319 95.4892 55.8588 94.6702 60.2368C93.8512 64.6148 91.5579 68.8588 87.8277 71.2935L44.7552 73.8696Z" fill="#A393EB"/>
<path d="M92.464 46.5273C94.0946 46.6166 97.1919 46.7432 98.7034 46.1327C100.215 45.5221 101.54 44.2043 101.726 42.5811C102.039 39.8263 99.8127 36.4534 97.244 35.4259C97.5344 35.5451 93.1415 33.1551 92.4863 31.4649C92.1885 30.7055 92.7544 29.2015 93.5138 28.9036C93.8265 28.7771 93.7074 28.7845 94.0424 28.8366C97.5121 29.4472 102.084 31.0554 106.759 38.0989C109.73 42.5811 108.539 48.8801 106.305 53.7718C104.072 58.6635 98.748 62.1034 93.3798 61.6939L92.464 46.5273Z" fill="#A393EB"/>
<path d="M37.9918 50.3886C35.1252 51.014 30.6802 49.3239 29.3773 46.6956C28.0743 44.0673 28.3349 40.8583 29.556 38.1928C30.777 35.5273 32.8692 33.3532 35.1476 31.5067C36.1974 30.6579 37.3068 29.8463 38.0737 28.7295C38.8331 27.6201 39.1831 26.1012 38.5502 24.9099C37.7982 23.4953 36.0113 23.0336 34.4179 22.9443C28.2232 22.6018 21.9838 26.1086 19.0577 31.5811C16.1316 37.0536 16.6677 44.1865 20.383 49.1526C24.7461 54.9825 33.033 57.6406 40.0691 59.5317L37.9918 50.3886Z" fill="#A393EB"/>
<path d="M99.3535 105.295C96.1965 108.042 92.7493 110.462 89.0563 112.502C88.2819 107.32 86.3014 102.317 83.2636 98.0505C81.9011 96.137 80.2482 94.3128 78.0592 93.4566C75.8702 92.6078 73.0558 93.0173 71.6858 94.9234C70.152 97.0751 70.9487 100.038 71.8049 102.54C73.5248 107.544 75.2596 112.644 75.9595 117.848C71.3209 119.129 66.459 119.859 61.4407 119.978C60.6068 118.019 59.5495 116.121 58.5369 114.237C56.5564 110.544 54.6801 106.546 54.9928 102.361C55.2013 99.6066 56.3628 96.9709 56.3703 94.216C56.3777 91.4537 54.5536 88.3043 51.7913 88.3936C49.8926 88.4606 48.3961 90.0167 47.3165 91.5803C43.3554 97.3059 41.9408 104.714 43.5044 111.497C44.0255 113.746 44.852 115.95 45.3657 118.198C39.7741 116.798 34.5027 114.617 29.6556 111.773C29.1419 109.978 28.643 108.184 28.2559 106.36C27.2805 101.781 27.1018 96.7922 29.261 92.6376C33.1774 85.0878 42.4545 81.0448 44.7403 72.8473L88.1032 69.9956C88.0958 70.0254 88.0809 70.0552 88.0734 70.085C86.5173 74.6714 89.2945 79.4962 91.558 83.7922C95.2137 90.7166 97.8569 97.9537 99.3535 105.295Z" fill="#A393EB"/>
<path d="M54.3674 53.8239C57.509 53.8239 60.0558 51.2771 60.0558 48.1355C60.0558 44.9939 57.509 42.4471 54.3674 42.4471C51.2258 42.4471 48.679 44.9939 48.679 48.1355C48.679 51.2771 51.2258 53.8239 54.3674 53.8239Z" fill="white"/>
<path d="M77.255 56.0576C80.3966 56.0576 82.9434 53.5108 82.9434 50.3692C82.9434 47.2276 80.3966 44.6808 77.255 44.6808C74.1134 44.6808 71.5666 47.2276 71.5666 50.3692C71.5666 53.5108 74.1134 56.0576 77.255 56.0576Z" fill="white"/>
</svg>
