<svg width="100" height="100" viewBox="0 0 100 100" fill="none" xmlns="http://www.w3.org/2000/svg">
<path d="M100 49.9969C100 65.0617 93.3362 78.5754 82.7946 87.7458C80.1638 90.0354 77.2911 92.0519 74.2136 93.7519C70.801 95.6443 67.1465 97.1521 63.2996 98.2069C59.4341 99.2741 55.3825 99.8821 51.2006 99.9814C50.8035 99.9938 50.4002 99.9938 50.0031 99.9938C45.7964 99.9938 41.7137 99.4726 37.8172 98.4985C33.1575 97.332 28.7647 95.514 24.7254 93.1439C9.93361 84.4698 0 68.3936 0 49.9969C0 22.3863 22.3863 0 50.0031 0C77.6199 0 100 22.3863 100 49.9969Z" fill="#27296D"/>
<path d="M77.8867 38.7727C79.2455 38.8472 81.8266 38.9526 83.0861 38.4438C84.3457 37.9351 85.4501 36.8368 85.6052 35.4842C85.8658 33.1885 84.0106 30.3778 81.87 29.5216C82.112 29.6209 78.4513 27.6292 77.9053 26.2207C77.6571 25.5879 78.1286 24.3345 78.7615 24.0863C79.0221 23.9809 78.9228 23.9871 79.202 24.0305C82.0934 24.5393 85.903 25.8795 89.7995 31.7491C92.2752 35.4842 91.2824 40.7334 89.4211 44.8098C87.5597 48.8862 83.1234 51.7528 78.6498 51.4115L77.8867 38.7727Z" fill="#A393EB"/>
<path d="M29.9932 40.3239C27.6044 40.8451 23.9002 39.4366 22.8144 37.2464C21.7286 35.0562 21.9458 32.382 22.9633 30.1607C23.9809 27.9395 25.7244 26.1277 27.623 24.589C28.4978 23.8816 29.4223 23.2053 30.0614 22.2746C30.6943 21.3501 30.9859 20.0844 30.4585 19.0917C29.8318 17.9128 28.3427 17.5281 27.0149 17.4536C21.8527 17.1682 16.6532 20.0906 14.2148 24.651C11.7764 29.2114 12.2231 35.1554 15.3192 39.2939C18.9551 44.1522 25.8609 46.3672 31.7243 47.9432L29.9932 40.3239Z" fill="#A393EB"/>
<path fill-rule="evenodd" clip-rule="evenodd" d="M73.019 60.5881C72.9612 63.5263 74.5414 66.5092 75.9975 69.2581C76.0986 69.4488 76.199 69.6385 76.2983 69.8269C79.3448 75.5972 81.5474 81.6281 82.7945 87.7459C80.1638 90.0354 77.291 92.0519 74.2135 93.7519C73.5683 89.4335 71.9178 85.264 69.3863 81.7088C68.2509 80.1142 66.8735 78.594 65.0493 77.8805C63.2251 77.1732 60.8798 77.5144 59.7381 79.1028C58.46 80.8959 59.1239 83.3654 59.8374 85.4501C61.2707 89.6197 62.7164 93.8698 63.2996 98.2069C59.4341 99.2741 55.3825 99.8821 51.2006 99.9814C50.5928 98.5541 49.8425 97.1648 49.0994 95.7886C48.9929 95.5913 48.8865 95.3944 48.7808 95.1976C47.1303 92.1201 45.5668 88.7882 45.8274 85.3012C45.9062 84.26 46.1483 83.2392 46.39 82.2204C46.6813 80.9927 46.9718 79.7679 46.9752 78.5134C46.9814 76.2115 45.4613 73.5869 43.1594 73.6614C41.5772 73.7172 40.3301 75.014 39.4304 76.3169C36.1295 81.0883 34.9506 87.2619 36.2536 92.9143C36.4683 93.8404 36.7451 94.7574 37.0218 95.6743C37.3051 96.6126 37.5882 97.5508 37.8048 98.4985C33.1451 97.332 28.7522 95.5141 24.713 93.1439C24.2849 91.6486 23.8692 90.1533 23.5465 88.6331C22.7337 84.8173 22.5848 80.6602 24.3842 77.198C25.8311 74.4086 28.1562 72.1937 30.4623 69.9968C33.0158 67.5642 35.5461 65.1538 36.8354 62.0101C36.5384 61.5495 36.2409 61.0885 35.9435 60.6275C35.4921 59.928 35.0407 59.2284 34.5908 58.5304C32.3634 55.0806 30.0739 51.4509 29.714 47.3683C29.2033 41.5485 32.615 36.3719 35.9019 31.3847C36.4487 30.5551 36.992 29.7307 37.5132 28.9095C37.8815 28.3279 38.2429 27.7382 38.6049 27.1475C40.3166 24.3545 42.0408 21.5414 44.5555 19.4722C50.6981 14.4093 60.309 15.3275 66.6998 20.0679C73.0906 24.8082 76.652 32.5392 78.3459 40.3136C79.1339 43.9433 79.5744 47.7157 78.8919 51.364C78.2094 55.0124 76.2984 58.549 73.1898 60.5779L73.019 60.5881Z" fill="#A393EB"/>
<path d="M42.6903 47L50 39.9999L42.6903 33L41.0456 34.5949L46.5736 39.9557L41 45.3607L42.6903 47Z" fill="white"/>
<path d="M68.1218 47L60 39.9999L68.1218 33L69.9492 34.5949L63.8071 39.9557L70 45.3607L68.1218 47Z" fill="white"/>
</svg>
