<svg width="120" height="120" viewBox="0 0 120 120" fill="none" xmlns="http://www.w3.org/2000/svg">
<path d="M120 59.9963C120 78.0741 112.003 94.2905 99.3535 105.295C96.1966 108.042 92.7493 110.462 89.0563 112.502C84.9612 114.773 80.5758 116.582 75.9595 117.848C71.321 119.129 66.459 119.859 61.4407 119.978C60.9642 119.993 60.4802 119.993 60.0037 119.993C54.9556 119.993 50.0565 119.367 45.3807 118.198C39.789 116.798 34.5176 114.617 29.6705 111.773C11.9203 101.364 0 82.0723 0 59.9963C0 26.8636 26.8636 0 60.0037 0C93.1439 0 120 26.8636 120 59.9963Z" fill="#27296D"/>
<path d="M44.7552 72.8697C43.6756 71.1945 42.5885 69.5118 41.5089 67.8365C38.836 63.6968 36.0886 59.3411 35.6567 54.442C34.9419 46.2965 40.6303 39.2009 45.0158 32.2914C47.5473 28.2932 49.8107 23.9747 53.4665 20.9667C60.8376 14.8912 72.3707 15.9931 80.0397 21.6815C87.7086 27.3699 91.9823 36.6471 94.015 45.9764C94.9606 50.332 95.4892 54.8589 94.6702 59.2369C93.8512 63.6149 91.5579 67.8588 87.8277 70.2935L44.7552 72.8697Z" fill="#A393EB"/>
<path d="M93.464 46.5273C95.0946 46.6167 98.1919 46.7432 99.7034 46.1327C101.215 45.5222 102.54 44.2043 102.726 42.5812C103.039 39.8263 100.813 36.4535 98.244 35.426C98.5344 35.5451 94.1415 33.1551 93.4863 31.465C93.1885 30.7055 93.7544 29.2015 94.5138 28.9037C94.8265 28.7771 94.7074 28.7846 95.0424 28.8367C98.5121 29.4472 103.084 31.0555 107.759 38.099C110.73 42.5812 109.539 48.8801 107.305 53.7719C105.072 58.6636 99.748 62.1034 94.3798 61.6939L93.464 46.5273Z" fill="#A393EB"/>
<path d="M35.9918 48.3887C33.1252 49.0142 28.6802 47.324 27.3773 44.6957C26.0743 42.0674 26.3349 38.8584 27.556 36.1929C28.777 33.5274 30.8692 31.3533 33.1476 29.5068C34.1974 28.658 35.3068 27.8464 36.0737 26.7296C36.8331 25.6202 37.1831 24.1013 36.5502 22.91C35.7982 21.4954 34.0113 21.0338 32.4179 20.9444C26.2232 20.6019 19.9838 24.1088 17.0577 29.5813C14.1316 35.0537 14.6677 42.1866 18.383 47.1528C22.7461 52.9826 31.033 55.6407 38.0691 57.5319L35.9918 48.3887Z" fill="#A393EB"/>
<path d="M99.3534 105.295C96.1965 108.043 92.7492 110.462 89.0562 112.502C88.2819 107.32 86.3013 102.317 83.2636 98.0506C81.901 96.1371 80.2481 94.3129 78.0591 93.4567C75.8701 92.6079 73.0557 93.0174 71.6857 94.9234C70.1519 97.0752 70.9486 100.039 71.8048 102.54C73.5248 107.544 75.2596 112.644 75.9595 117.848C71.3209 119.129 66.4589 119.859 61.4406 119.978C60.6067 118.02 59.5495 116.121 58.5369 114.237C56.5564 110.544 54.6801 106.546 54.9928 102.362C55.2013 99.6067 56.3628 96.971 56.3702 94.2161C56.3777 91.4538 54.5535 88.3043 51.7912 88.3937C49.8926 88.4607 48.396 90.0168 47.3164 91.5804C43.3554 97.306 41.9407 104.714 43.5043 111.497C44.0255 113.746 44.8519 115.95 45.3657 118.198C39.7741 116.798 34.5026 114.617 29.6556 111.773C29.1418 109.978 28.643 108.184 28.2558 106.36C27.2804 101.781 27.1017 96.7923 29.2609 92.6377C33.1773 85.0879 42.4545 81.0449 44.7403 72.8474L88.1032 69.9957C88.0957 70.0255 88.0808 70.0553 88.0734 70.0851C86.5173 74.6715 89.2945 79.4963 91.5579 83.7923C95.2137 90.7167 97.8568 97.9538 99.3534 105.295Z" fill="#A393EB"/>
<path d="M54.3674 53.824C57.509 53.824 60.0558 51.2772 60.0558 48.1356C60.0558 44.9939 57.509 42.4471 54.3674 42.4471C51.2258 42.4471 48.679 44.9939 48.679 48.1356C48.679 51.2772 51.2258 53.824 54.3674 53.824Z" fill="white"/>
<path d="M77.255 56.0576C80.3966 56.0576 82.9434 53.5108 82.9434 50.3692C82.9434 47.2276 80.3966 44.6808 77.255 44.6808C74.1134 44.6808 71.5666 47.2276 71.5666 50.3692C71.5666 53.5108 74.1134 56.0576 77.255 56.0576Z" fill="white"/>
</svg>
